<svg version="1.1" id="Layer_1" xmlns="http://www.w3.org/2000/svg" xmlns:xlink="http://www.w3.org/1999/xlink" x="0px" y="0px"
	 width="100%" viewBox="0 0 256 265" enable-background="new 0 0 256 265" xml:space="preserve">
<path fill="#FEFEFE" opacity="1.000000" stroke="none" 
	d="
M248.000000,266.000000 
	C165.714127,266.000000 83.428261,266.000000 1.071197,266.000000 
	C1.071197,177.765106 1.071197,89.530136 1.071197,1.000000 
	C83.020660,1.000000 165.041672,1.000000 247.531952,1.468657 
	C248.000809,89.958206 248.000412,177.979111 248.000000,266.000000 
M83.347656,199.216400 
	C76.724518,203.496719 74.149323,210.289398 76.333641,217.717545 
	C78.489090,225.047516 84.388306,228.343750 95.063522,228.182968 
	C99.833046,228.111145 99.833046,228.111145 100.614899,225.249130 
	C90.514153,227.522247 84.414337,225.507996 81.003044,218.772980 
	C77.690277,212.232483 79.280632,204.961014 85.905197,199.957535 
	C91.641090,198.305359 97.035355,198.607498 102.107468,202.799332 
	C101.870155,200.961227 101.181023,198.367447 100.486977,198.366135 
	C95.000763,198.355759 89.513611,198.839539 83.347656,199.216400 
M131.554214,225.782211 
	C136.821487,223.409729 139.657730,217.873871 139.080933,211.091339 
	C138.579330,205.192810 135.016815,200.185455 129.419952,199.238068 
	C123.023346,198.155350 116.463402,198.037628 108.601555,197.386963 
	C113.184456,200.883911 113.955185,222.546967 110.962250,227.657425 
	C113.916817,227.657425 116.871391,227.657425 120.313171,228.336838 
	C124.410057,229.769180 128.119720,229.417374 131.554214,225.782211 
M224.001785,153.428940 
	C224.001785,122.837128 224.001785,92.245316 224.001785,61.449371 
	C215.508698,61.449371 207.571060,61.449371 199.174347,61.449371 
	C202.295288,72.176079 200.293777,81.118034 190.435303,87.115685 
	C183.096817,91.580223 175.630264,91.026009 168.895447,86.127541 
	C160.480377,80.006958 158.614777,71.462051 161.802689,61.603058 
	C153.098083,61.603058 144.719391,61.603058 135.876923,61.603058 
	C135.876923,76.160828 135.876923,90.363846 135.876923,104.770645 
	C122.801239,98.751495 113.990601,99.889877 107.084755,108.212830 
	C101.435486,115.021339 101.194420,125.664482 106.527657,132.808563 
	C113.034851,141.525177 121.735382,142.888474 136.073792,137.156677 
	C136.073792,151.384323 136.073792,165.420288 136.073792,179.558334 
	C158.519089,179.558334 180.489380,180.252899 202.388718,179.306198 
	C216.237061,178.707550 224.001236,168.511642 224.001785,153.428940 
M50.533249,61.223869 
	C40.680920,61.028263 31.338375,61.994038 24.107615,70.048386 
	C15.469001,79.670944 18.167793,91.040176 17.947409,102.205627 
	C30.746460,100.071342 37.944176,102.156738 42.982727,109.669899 
	C47.532639,116.454414 48.073551,123.825424 43.993172,130.922394 
	C38.148533,141.087936 28.833090,142.787811 18.154078,139.979065 
	C18.154078,153.464920 18.154078,166.508499 18.154078,179.606171 
	C55.085392,179.606171 91.639214,179.606171 128.409241,179.606171 
	C128.409241,176.392365 128.409241,173.475250 128.409241,170.099533 
	C114.200966,171.183472 101.457657,167.906311 90.708496,158.597351 
	C80.005905,149.328705 73.993660,137.623657 73.155029,123.422455 
	C72.405426,110.728813 76.051468,99.261314 84.131523,89.556808 
	C95.507645,75.893570 110.378227,69.692375 128.190231,71.137497 
	C128.190231,67.534866 128.190231,64.509102 128.190231,60.877403 
	C115.580307,60.877403 103.433578,60.877403 90.873062,60.877403 
	C99.061424,49.531734 98.947014,39.506577 90.987671,31.399412 
	C84.406563,24.696081 72.312798,23.532116 64.990509,29.773829 
	C61.642227,32.627991 58.736233,36.893646 57.452404,41.078354 
	C55.249454,48.258984 57.693600,55.040936 63.514851,61.224018 
	C58.772213,61.224018 55.137699,61.224018 50.533249,61.223869 
M154.341873,218.458282 
	C154.341873,221.567932 154.341873,224.677582 154.341873,227.785141 
	C158.209320,227.818039 158.150024,227.818314 158.133514,224.304901 
	C158.095657,216.253860 158.121536,208.202499 158.121536,199.524750 
	C161.886444,200.108719 164.967117,200.586548 168.107208,201.073608 
	C168.107208,200.550949 168.107208,199.309952 168.107208,197.863281 
	C160.898590,197.863281 153.935028,197.728180 146.986511,197.991013 
	C145.772293,198.036942 144.621414,199.756912 143.307968,200.810699 
	C147.431610,200.435944 150.671768,200.141479 154.342316,199.807907 
	C154.342316,206.211411 154.342316,211.842346 154.341873,218.458282 
z"/>
<path fill="#000000" opacity="1.000000" stroke="none" 
	d="
M248.491058,266.000000 
	C248.000412,177.979111 248.000809,89.958206 248.000610,1.468657 
	C250.992966,1.000000 253.985916,1.000000 257.000000,1.000000 
	C257.000000,60.020893 257.000000,119.041786 256.676361,178.771378 
	C253.667694,178.126709 251.171906,177.388077 249.630264,182.824402 
	C252.436508,182.891266 254.718262,182.945633 257.000000,183.000000 
	C257.000000,210.666687 257.000000,238.333359 257.000000,266.000000 
	C254.287323,266.000000 251.634720,266.000000 248.491058,266.000000 
z"/>
<path fill="#E51B1B" opacity="1.000000" stroke="none" 
	d="
M257.000000,182.600006 
	C254.718262,182.945633 252.436508,182.891266 249.630264,182.824402 
	C251.171906,177.388077 253.667694,178.126709 256.676361,179.240036 
	C257.000000,180.066666 257.000000,181.133347 257.000000,182.600006 
z"/>
<path fill="#1A4754" opacity="1.000000" stroke="none" 
	d="
M224.001785,153.914612 
	C224.001236,168.511642 216.237061,178.707550 202.388718,179.306198 
	C180.489380,180.252899 158.519089,179.558334 136.073792,179.558334 
	C136.073792,165.420288 136.073792,151.384323 136.073792,137.156677 
	C121.735382,142.888474 113.034851,141.525177 106.527657,132.808563 
	C101.194420,125.664482 101.435486,115.021339 107.084755,108.212830 
	C113.990601,99.889877 122.801239,98.751495 135.876923,104.770645 
	C135.876923,90.363846 135.876923,76.160828 135.876923,61.603058 
	C144.719391,61.603058 153.098083,61.603058 161.802689,61.603058 
	C158.614777,71.462051 160.480377,80.006958 168.895447,86.127541 
	C175.630264,91.026009 183.096817,91.580223 190.435303,87.115685 
	C200.293777,81.118034 202.295288,72.176079 199.174347,61.449371 
	C207.571060,61.449371 215.508698,61.449371 224.001785,61.449371 
	C224.001785,92.245316 224.001785,122.837128 224.001785,153.914612 
z"/>
<path fill="#FA4741" opacity="1.000000" stroke="none" 
	d="
M51.018219,61.223946 
	C55.137699,61.224018 58.772213,61.224018 63.514851,61.224018 
	C57.693600,55.040936 55.249454,48.258984 57.452404,41.078354 
	C58.736233,36.893646 61.642227,32.627991 64.990509,29.773829 
	C72.312798,23.532116 84.406563,24.696081 90.987671,31.399412 
	C98.947014,39.506577 99.061424,49.531734 90.873062,60.877403 
	C103.433578,60.877403 115.580307,60.877403 128.190231,60.877403 
	C128.190231,64.509102 128.190231,67.534866 128.190231,71.137497 
	C110.378227,69.692375 95.507645,75.893570 84.131523,89.556808 
	C76.051468,99.261314 72.405426,110.728813 73.155029,123.422455 
	C73.993660,137.623657 80.005905,149.328705 90.708496,158.597351 
	C101.457657,167.906311 114.200966,171.183472 128.409241,170.099533 
	C128.409241,173.475250 128.409241,176.392365 128.409241,179.606171 
	C91.639214,179.606171 55.085392,179.606171 18.154078,179.606171 
	C18.154078,166.508499 18.154078,153.464920 18.154078,139.979065 
	C28.833090,142.787811 38.148533,141.087936 43.993172,130.922394 
	C48.073551,123.825424 47.532639,116.454414 42.982727,109.669899 
	C37.944176,102.156738 30.746460,100.071342 17.947409,102.205627 
	C18.167793,91.040176 15.469001,79.670944 24.107615,70.048386 
	C31.338375,61.994038 40.680920,61.028263 51.018219,61.223946 
z"/>
<path fill="#F9FAFA" opacity="1.000000" stroke="none" 
	d="
M131.160324,225.982697 
	C128.119720,229.417374 124.410057,229.769180 119.874130,227.734482 
	C118.373062,226.009308 116.430817,224.916748 116.390999,223.758804 
	C116.119804,215.871506 116.249031,207.970444 116.249031,199.915588 
	C123.478271,199.177261 129.479523,200.063156 133.374832,206.278534 
	C136.712982,211.604858 135.865479,218.013199 131.311539,224.174194 
	C131.005585,224.588135 131.199097,225.371277 131.160324,225.982697 
z"/>
<path fill="#305965" opacity="1.000000" stroke="none" 
	d="
M131.357269,225.882446 
	C131.199097,225.371277 131.005585,224.588135 131.311539,224.174194 
	C135.865479,218.013199 136.712982,211.604858 133.374832,206.278534 
	C129.479523,200.063156 123.478271,199.177261 116.249031,199.915588 
	C116.249031,207.970444 116.119804,215.871506 116.390999,223.758804 
	C116.430817,224.916748 118.373062,226.009308 119.630524,227.394775 
	C116.871391,227.657425 113.916817,227.657425 110.962189,227.661377 
	C113.955185,222.546967 113.184456,200.883911 108.601555,197.386963 
	C116.463402,198.037628 123.023346,198.155350 129.419952,199.238068 
	C135.016815,200.185455 138.579330,205.192810 139.080933,211.091339 
	C139.657730,217.873871 136.821487,223.409729 131.357269,225.882446 
z"/>
<path fill="#39606C" opacity="1.000000" stroke="none" 
	d="
M154.342102,217.965790 
	C154.342316,211.842346 154.342316,206.211411 154.342316,199.807907 
	C150.671768,200.141479 147.431610,200.435944 143.307968,200.810699 
	C144.621414,199.756912 145.772293,198.036942 146.986511,197.991013 
	C153.935028,197.728180 160.898590,197.863281 168.107208,197.863281 
	C168.107208,199.309952 168.107208,200.550949 168.107208,201.073608 
	C164.967117,200.586548 161.886444,200.108719 158.121536,199.524750 
	C158.121536,208.202499 158.095657,216.253860 158.133514,224.304901 
	C158.150024,227.818314 158.209320,227.818039 154.341873,227.785141 
	C154.341873,224.677582 154.341873,221.567932 154.342102,217.965790 
z"/>
<path fill="#325B66" opacity="1.000000" stroke="none" 
	d="
M85.099510,200.042984 
	C79.280632,204.961014 77.690277,212.232483 81.003044,218.772980 
	C84.414337,225.507996 90.514153,227.522247 100.614899,225.249130 
	C99.833046,228.111145 99.833046,228.111145 95.063522,228.182968 
	C84.388306,228.343750 78.489090,225.047516 76.333641,217.717545 
	C74.149323,210.289398 76.724518,203.496719 83.817886,199.391876 
	C84.515732,199.799011 84.786194,199.957550 85.099510,200.042984 
z"/>
<path fill="#2E5864" opacity="1.000000" stroke="none" 
	d="
M85.502350,200.000259 
	C84.786194,199.957550 84.515732,199.799011 84.157433,199.369370 
	C89.513611,198.839539 95.000763,198.355759 100.486977,198.366135 
	C101.181023,198.367447 101.870155,200.961227 102.107468,202.799332 
	C97.035355,198.607498 91.641090,198.305359 85.502350,200.000259 
z"/>
</svg>